{"title":"Lost.Girl.S03E09.HDTV.DivX-Atilla82","uid":8271772,"size":367129919,"categoryP":"video","categoryS":"tv_shows","magnet":"?xt=urn:btih:63afa7e85c7069caa893198cd2c47232ce7ebddb&amp;dn=Lost.Girl.S03E09.HDTV.DivX-Atilla82&amp;tr=udp%3A%2F%2Ftracker.openbittorrent.com%3A80&amp;tr=udp%3A%2F%2Fopen.demonii.com%3A1337&amp;tr=udp%3A%2F%2Ftracker.coppersurfer.tk%3A6969&amp;tr=udp%3A%2F%2Fexodus.desync.com%3A6969","seeders":1,"leechers":0,"uploader":"Atilla82","files":2,"time":1363626974,"description":"Lost Girl S03E09 HDTV DivX Atilla82\n\n &lt;a href=&quot;\nhttp://www.imdb.com/title/tt1429449/&quot; rel=&quot;nofollow&quot; target=&quot;_NEW&quot;&gt;\nhttp://www.imdb.com/title/tt1429449/&lt;/a&gt;\n\n\n\nGeneral\nComplete name : lost.girl.s03e09.hdtv.divx-atilla82.avi\nFormat : AVI\nFormat/Info : Audio Video Interleave\nFile size : 350 MiB\nDuration : 43mn 52s\nOverall bit rate : 1 115 Kbps\nWriting application : VirtualDubMod 1.5.10.2 (build 2540/release)\nWriting library : VirtualDubMod build 2540/release\n\nVideo\nID : 0\nFormat : MPEG-4 Visual\nFormat settings, BVOP : 1\nFormat settings, QPel : No\nFormat settings, GMC : No warppoints\nFormat settings, Matrix : Default (H.263)\nMuxing mode : Packed bitstream\nCodec ID : DX50\nCodec ID/Hint : DivX 5\nDuration : 43mn 52s\nBit rate : 978 Kbps\nWidth : 680 pixels\nHeight : 382 pixels\nDisplay aspect ratio : 16:9\nFrame rate : 23.976 fps\nColor space : YUV\nChroma subsampling : 4:2:0\nBit depth : 8 bits\nScan type : Progressive\nCompression mode : Lossy\nBits/(Pixel*Frame) : 0.157\nStream size : 307 MiB (88%)\nWriting library : DivX 2682\n\nAudio\nID : 1\nFormat : MPEG Audio\nFormat version : Version 1\nFormat profile : Layer 3\nMode : Joint stereo\nCodec ID : 55\nCodec ID/Hint : MP3\nDuration : 43mn 52s\nBit rate mode : Constant\nBit rate : 128 Kbps\nChannel(s) : 2 channels\nSampling rate : 48.0 KHz\nCompression mode : Lossy\nStream size : 40.2 MiB (11%)\nAlignment : Aligned on interleaves\nInterleave, duration : 42 ms (1.00 video frame)\nInterleave, preload duration : 504 ms\n\n\n\n\nSCREENS &lt;a href=&quot;\nhttp://www.pohrani.com/f/16/Fy/3myk3iaE/screenshots.jpg&quot; rel=&quot;nofollow&quot; target=&quot;_NEW&quot;&gt;\nhttp://www.pohrani.com/f/16/Fy/3myk3iaE/screenshots.jpg&lt;/a&gt;\n\n\n\n","torrent":{"xt":"urn:btih:63afa7e85c7069caa893198cd2c47232ce7ebddb","amp;dn":"Lost.Girl.S03E09.HDTV.DivX-Atilla82","amp;tr":["udp%3A%2F%2Ftracker.openbittorrent.com%3A80","udp%3A%2F%2Fopen.demonii.com%3A1337","udp%3A%2F%2Ftracker.coppersurfer.tk%3A6969","udp%3A%2F%2Fexodus.desync.com%3A6969"],"infoHash":"63afa7e85c7069caa893198cd2c47232ce7ebddb","infoHashBuffer":{"type":"Buffer","data":[99,175,167,232,92,112,105,202,168,147,25,140,210,196,114,50,206,126,189,219]},"announce":[],"urlList":[]}}